<svg xmlns="http://www.w3.org/2000/svg" viewBox="6.2 6.1 19.8 19.8" width="19.8" height="19.8">
<defs>
<radialGradient id="g1" gradientUnits="userSpaceOnUse" cx="0" cy="0" r="819.2" fx="0" fy="0" gradientTransform="matrix(0.0168304443359375 0 0 0.0168304443359375 19.1 12.5)">
<stop offset="0" stop-color="#e3f9f7"/>
<stop offset="1" stop-color="#29cdbc"/>
</radialGradient>
</defs>
<path d="M11.2 8.6 L21 8.6 Q21 15.8 17.3 17.2 L17 20 L19.3 21.6 L19.3 23.5 L12.9 23.5 L12.9 21.6 L15.2 20 L14.9 17.2 Q11.2 15.8 11.2 8.6 Z M11.2 9.9 Q8.3 9.7 8.3 12.3 Q8.3 15 12.3 15.3 L11.8 13.9 Q9.7 13.7 9.7 12.3 Q9.7 11 11.2 11.1 Z M21 9.9 Q23.9 9.7 23.9 12.3 Q23.9 15 19.9 15.3 L20.4 13.9 Q22.5 13.7 22.5 12.3 Q22.5 11 21 11.1 Z" fill="url(#g1)" fill-rule="evenodd"/>
<path d="M11.2 8.6 L21 8.6 Q21 15.8 17.3 17.2 L17 20 L19.3 21.6 L19.3 23.5 L12.9 23.5 L12.9 21.6 L15.2 20 L14.9 17.2 Q11.2 15.8 11.2 8.6 Z M11.2 9.9 Q8.3 9.7 8.3 12.3 Q8.3 15 12.3 15.3 L11.8 13.9 Q9.7 13.7 9.7 12.3 Q9.7 11 11.2 11.1 Z M21 9.9 Q23.9 9.7 23.9 12.3 Q23.9 15 19.9 15.3 L20.4 13.9 Q22.5 13.7 22.5 12.3 Q22.5 11 21 11.1 Z" fill="none" stroke="#ffffff" stroke-width="1" stroke-linecap="round" stroke-linejoin="round"/>
</svg>
